# xmcd
#
# Track frame offsets:
#	150
#	18346
#	70161
#	104644
#	135092
#	162797
#	187126
#	208471
#	229739
#	254837
#	284493
#	302226
#	322120
#
# Disc length: 4742 seconds
#
# Revision: 81097513
# Processed by: cddbd v1.5.1PL0 Copyright (c) Steve Scherf et al.
# Submitted via: EasyCDDAExtractor 8.0.2.1
#
DISCID=ca12840d
DTITLE=Various Artist - Blues Paradise vol.18
DYEAR=2000
DGENRE=Blues
TTITLE0=Kentusky Thunder - Love Is A Gift
TTITLE1=Mike Griffin and The Unknown Blues Band - The Blues Ain't Never Die
TTITLE2=Michael Henderson and The Bluebloods - When The Welfare Turns Its Back O
TTITLE2=n You
TTITLE3=Little Kings - Reconsider Baby
TTITLE4=Scott Hold Band - Ain't Gonna Be A Fool
TTITLE5=Googman Murphy Band - Some Ol' Blues
TTITLE6=Terry Hagerty - Red House
TTITLE7=Trichotic - Something Is Wrong
TTITLE8=Barry Richman Band - Without Explanation
TTITLE9=Chris Hicks - Blues Got Me Down
TTITLE10=Doug "Little Brothers" Jones - When The Deal Goes Down
TTITLE11=Reddog - Honest Man
TTITLE12=Donnie McCormick - It's A Feeling
EXTD=YEAR: 2002
EXTT0=
EXTT1=
EXTT2=
EXTT3=
EXTT4=
EXTT5=
EXTT6=
EXTT7=
EXTT8=
EXTT9=
EXTT10=
EXTT11=
EXTT12=
PLAYORDER=
